<svg width="35" height="35" viewBox="0 0 35 35" fill="none" xmlns="http://www.w3.org/2000/svg">
<g clip-path="url(#clip0)">
<path d="M35 17.6072C35 7.88161 27.1644 -0.00213623 17.5 -0.00213623C7.83123 5.12695e-05 -0.00439453 7.88162 -0.00439453 17.6094C-0.00439453 26.3966 6.39623 33.681 14.7612 35.0022V22.6976H10.3206V17.6094H14.7656V13.7266C14.7656 9.31443 17.3797 6.87755 21.3762 6.87755C23.2925 6.87755 25.294 7.22099 25.294 7.22099V11.5522H23.0869C20.9147 11.5522 20.2365 12.9107 20.2365 14.3041V17.6072H25.0884L24.314 22.6954H20.2344V35C28.5994 33.6788 35 26.3944 35 17.6072Z" fill="white"/>
</g>
<defs>
<clipPath id="clip0">
<rect width="35" height="35" fill="white"/>
</clipPath>
</defs>
</svg>
