<svg width="35" height="35" viewBox="0 0 35 35" fill="none" xmlns="http://www.w3.org/2000/svg">
<path d="M17.5 0.700012C8.22151 0.700012 0.700012 8.22151 0.700012 17.5C0.700012 26.7785 8.22151 34.3 17.5 34.3C26.7785 34.3 34.3 26.7785 34.3 17.5C34.3 8.22151 26.7785 0.700012 17.5 0.700012ZM24.3338 14.462C24.3408 14.6055 24.3425 14.749 24.3425 14.889C24.3425 19.264 21.0158 24.3058 14.9293 24.3058C13.1308 24.3088 11.3697 23.7922 9.85776 22.8183C10.115 22.8498 10.3793 22.862 10.647 22.862C12.1975 22.862 13.6238 22.3353 14.756 21.4463C14.066 21.4327 13.3974 21.2042 12.8435 20.7927C12.2895 20.3811 11.8777 19.807 11.6655 19.1503C12.161 19.2445 12.6715 19.2247 13.1583 19.0925C12.4093 18.9411 11.7359 18.5353 11.252 17.9439C10.7681 17.3526 10.5037 16.6121 10.5035 15.848V15.8078C10.9498 16.0545 11.4608 16.205 12.0033 16.2225C11.3012 15.7551 10.8041 15.0372 10.6138 14.2155C10.4235 13.3938 10.5544 12.5305 10.9795 11.802C11.8107 12.824 12.8472 13.6601 14.022 14.2561C15.1968 14.852 16.4837 15.1947 17.7993 15.2618C17.632 14.5518 17.704 13.8065 18.004 13.1416C18.3041 12.4768 18.8153 11.9297 19.4584 11.5855C20.1014 11.2412 20.8402 11.119 21.5598 11.2379C22.2795 11.3568 22.9397 11.7102 23.4378 12.243C24.1783 12.0965 24.8885 11.8249 25.5378 11.4398C25.2909 12.2065 24.7742 12.8576 24.0835 13.272C24.7395 13.193 25.38 13.0166 25.984 12.7488C25.5404 13.4136 24.9815 13.9938 24.3338 14.462Z" fill="white"/>
</svg>
